<svg xmlns="http://www.w3.org/2000/svg" width="19" height="14" viewBox="0 0 19 14" fill="none">
<path d="M15 1H15.5V0.5H15V1ZM14.6464 13.3536C14.8417 13.5488 15.1583 13.5488 15.3536 13.3536L18.5355 10.1716C18.7308 9.97631 18.7308 9.65973 18.5355 9.46447C18.3403 9.2692 18.0237 9.2692 17.8284 9.46447L15 12.2929L12.1716 9.46447C11.9763 9.2692 11.6597 9.2692 11.4645 9.46447C11.2692 9.65973 11.2692 9.97631 11.4645 10.1716L14.6464 13.3536ZM0 1.5H15V0.5H0V1.5ZM14.5 1V13H15.5V1H14.5Z" fill="white"/>
</svg>